<?xml version="1.0" encoding="utf-8"?>
<!-- Generator: Adobe Illustrator 27.7.0, SVG Export Plug-In . SVG Version: 6.00 Build 0)  -->
<svg version="1.1" id="Layer_1" xmlns="http://www.w3.org/2000/svg" xmlns:xlink="http://www.w3.org/1999/xlink" x="0px" y="0px"
	 width="297.1px" height="307.7px" viewBox="0 0 297.1 307.7" style="enable-background:new 0 0 297.1 307.7;" xml:space="preserve"
	>
<style type="text/css">
	.st0{fill:#FFFFFF;}
</style>
<polygon points="132.8,129.7 141,134.4 141,143.9 132.8,148.6 132.8,158.3 141,163 141,172.6 132.8,177.3 132.8,186.9 141,191.7 
	141,201.2 132.8,205.9 132.8,215.9 152.6,227.3 172.3,215.9 172.3,129.6 191.3,118.7 191.3,73.9 152.6,51.6 113.8,73.9 113.8,118.7 
	132.8,129.6 "/>
<polygon class="st0" points="129.1,82.2 129.1,95.7 152.6,109.3 176.1,95.7 176.1,82.2 152.6,68.6 "/>
</svg>
