<?xml version="1.0" encoding="utf-8"?>
<!-- Generator: Adobe Illustrator 27.7.0, SVG Export Plug-In . SVG Version: 6.00 Build 0)  -->
<svg version="1.1" id="Layer_1" xmlns="http://www.w3.org/2000/svg" xmlns:xlink="http://www.w3.org/1999/xlink" x="0px" y="0px"
	 width="297.1px" height="307.7px" viewBox="0 0 297.1 307.7" style="enable-background:new 0 0 297.1 307.7;" xml:space="preserve"
	>
<style type="text/css">
	.st0{fill:#A0A0A0;}
	.st1{fill:#5E5E5E;}
</style>
<path class="st0" d="M67.5,135.2l52.1-29.5l-0.2,19.5h4.7c22.6,0,41.1,18.4,41.1,41.1v70.2h-25v-70.2c0-8.9-7.2-16.1-16.1-16.1h-4.9
	l-0.1,15.4L67.5,135.2z"/>
<polygon points="183.6,97.6 153.2,46.1 123.7,98.2 140.7,98 140.7,236.5 165.7,236.5 165.7,97.8 "/>
<path class="st1" d="M238.3,135.2l-52.1-29.5l0.2,19.5h-4.7c-22.6,0-41.1,18.4-41.1,41.1v70.2h25v-70.2c0-8.9,7.2-16.1,16.1-16.1
	h4.9l0.1,15.4L238.3,135.2z"/>
</svg>
