<?xml version="1.0" encoding="utf-8"?>
<!-- Generator: Adobe Illustrator 27.7.0, SVG Export Plug-In . SVG Version: 6.00 Build 0)  -->
<svg version="1.1" id="Layer_1" xmlns="http://www.w3.org/2000/svg" xmlns:xlink="http://www.w3.org/1999/xlink" x="0px" y="0px"
	 width="297.1px" height="307.7px" viewBox="0 0 297.1 307.7" style="enable-background:new 0 0 297.1 307.7;" xml:space="preserve"
	>
<path d="M225.8,143.1c-2.7-38-34.7-67.7-72.8-67.7c-40.2,0-73,32.7-73,73s32.7,73,73,73c1.2,0,2.4,0,3.5-0.1l-1.4-29.1
	c-0.7,0-1.4,0.1-2.1,0.1c-24.2,0-43.8-19.7-43.8-43.8s19.7-43.8,43.8-43.8c22.1,0,40.7,16.7,43.4,38.3l-25.8-0.2l22.7,59.3
	l53.4-58.8L225.8,143.1z"/>
</svg>
