<?xml version="1.0" encoding="utf-8"?>
<!-- Generator: Adobe Illustrator 27.7.0, SVG Export Plug-In . SVG Version: 6.00 Build 0)  -->
<svg version="1.1" id="Layer_1" xmlns="http://www.w3.org/2000/svg" xmlns:xlink="http://www.w3.org/1999/xlink" x="0px" y="0px"
	 width="297.1px" height="307.7px" viewBox="0 0 297.1 307.7" style="enable-background:new 0 0 297.1 307.7;" xml:space="preserve"
	>
<path d="M202.9,136.5c-1.2-29.7-25.7-53.6-55.7-53.6s-54.5,23.8-55.7,53.6H79.6v87.9h135.2v-87.9H202.9z M147.2,192.9
	c-7.6,0-13.8-6.2-13.8-13.8c0-7.6,6.2-13.8,13.8-13.8c7.6,0,13.8,6.2,13.8,13.8C161,186.8,154.9,192.9,147.2,192.9z M112.5,136.5
	c1.2-18.2,16.3-32.6,34.8-32.6s33.6,14.5,34.8,32.6H112.5z"/>
</svg>
