<?xml version="1.0" encoding="utf-8"?>
<!-- Generator: Adobe Illustrator 27.7.0, SVG Export Plug-In . SVG Version: 6.00 Build 0)  -->
<svg version="1.1" id="Layer_1" xmlns="http://www.w3.org/2000/svg" xmlns:xlink="http://www.w3.org/1999/xlink" x="0px" y="0px"
	 width="297.1px" height="307.7px" viewBox="0 0 297.1 307.7" style="enable-background:new 0 0 297.1 307.7;" xml:space="preserve"
	>
<g>
	<rect x="91.5" y="58" width="108.3" height="48.4"/>
	<polygon points="244.1,201.3 244.1,146.1 153.4,146.1 153.4,106.4 137.9,106.4 137.9,146.1 47.8,146.1 47.8,201.3 22.3,201.3 
		22.3,249.7 88.7,249.7 88.7,201.3 63.2,201.3 63.2,161.6 137.9,161.6 137.9,201.3 112.7,201.3 112.7,249.7 179.2,249.7 
		179.2,201.3 153.4,201.3 153.4,161.6 228.7,161.6 228.7,201.3 203.2,201.3 203.2,249.7 269.6,249.7 269.6,201.3 	"/>
</g>
</svg>
